<mxfile host="Electron" modified="2024-04-21T21:34:42.588Z" agent="Mozilla/5.0 (Windows NT 10.0; Win64; x64) AppleWebKit/537.36 (KHTML, like Gecko) draw.io/24.2.5 Chrome/120.0.6099.109 Electron/28.1.0 Safari/537.36" etag="Nmd74jE-JGb-r52pyK63" version="24.2.5" type="device">
  <diagram name="Strona-1" id="CO2Lho6Jn4Zs_kgw5WHL">
    <mxGraphModel dx="1434" dy="836" grid="1" gridSize="10" guides="1" tooltips="1" connect="1" arrows="1" fold="1" page="1" pageScale="1" pageWidth="827" pageHeight="1169" math="0" shadow="0">
      <root>
        <mxCell id="0" />
        <mxCell id="1" parent="0" />
        <mxCell id="zhEialryifkVsMo9ecng-11" style="rounded=0;orthogonalLoop=1;jettySize=auto;html=1;entryX=0;entryY=0.5;entryDx=0;entryDy=0;endArrow=none;endFill=0;" parent="1" source="zhEialryifkVsMo9ecng-1" target="zhEialryifkVsMo9ecng-4" edge="1">
          <mxGeometry relative="1" as="geometry" />
        </mxCell>
        <mxCell id="zhEialryifkVsMo9ecng-16" style="edgeStyle=none;rounded=0;orthogonalLoop=1;jettySize=auto;html=1;entryX=0;entryY=1;entryDx=0;entryDy=0;strokeColor=default;align=center;verticalAlign=middle;fontFamily=Helvetica;fontSize=11;fontColor=default;labelBackgroundColor=default;endArrow=none;endFill=0;" parent="1" source="zhEialryifkVsMo9ecng-1" target="zhEialryifkVsMo9ecng-3" edge="1">
          <mxGeometry relative="1" as="geometry" />
        </mxCell>
        <mxCell id="zhEialryifkVsMo9ecng-17" style="edgeStyle=none;rounded=0;orthogonalLoop=1;jettySize=auto;html=1;entryX=0.5;entryY=1;entryDx=0;entryDy=0;strokeColor=default;align=center;verticalAlign=middle;fontFamily=Helvetica;fontSize=11;fontColor=default;labelBackgroundColor=default;endArrow=none;endFill=0;" parent="1" source="zhEialryifkVsMo9ecng-1" target="zhEialryifkVsMo9ecng-8" edge="1">
          <mxGeometry relative="1" as="geometry" />
        </mxCell>
        <mxCell id="zhEialryifkVsMo9ecng-18" style="edgeStyle=none;rounded=0;orthogonalLoop=1;jettySize=auto;html=1;entryX=1;entryY=1;entryDx=0;entryDy=0;strokeColor=default;align=center;verticalAlign=middle;fontFamily=Helvetica;fontSize=11;fontColor=default;labelBackgroundColor=default;endArrow=none;endFill=0;" parent="1" source="zhEialryifkVsMo9ecng-1" target="zhEialryifkVsMo9ecng-2" edge="1">
          <mxGeometry relative="1" as="geometry" />
        </mxCell>
        <mxCell id="zhEialryifkVsMo9ecng-19" style="edgeStyle=none;rounded=0;orthogonalLoop=1;jettySize=auto;html=1;entryX=1;entryY=0.5;entryDx=0;entryDy=0;strokeColor=default;align=center;verticalAlign=middle;fontFamily=Helvetica;fontSize=11;fontColor=default;labelBackgroundColor=default;endArrow=none;endFill=0;" parent="1" source="zhEialryifkVsMo9ecng-1" target="zhEialryifkVsMo9ecng-7" edge="1">
          <mxGeometry relative="1" as="geometry" />
        </mxCell>
        <mxCell id="zhEialryifkVsMo9ecng-20" style="edgeStyle=none;rounded=0;orthogonalLoop=1;jettySize=auto;html=1;entryX=1;entryY=0;entryDx=0;entryDy=0;strokeColor=default;align=center;verticalAlign=middle;fontFamily=Helvetica;fontSize=11;fontColor=default;labelBackgroundColor=default;endArrow=none;endFill=0;" parent="1" source="zhEialryifkVsMo9ecng-1" target="zhEialryifkVsMo9ecng-9" edge="1">
          <mxGeometry relative="1" as="geometry" />
        </mxCell>
        <mxCell id="R4Y-qMwQEU5ShF-LeEok-9" style="edgeStyle=none;rounded=0;orthogonalLoop=1;jettySize=auto;html=1;entryX=0;entryY=0;entryDx=0;entryDy=0;strokeColor=default;align=center;verticalAlign=middle;fontFamily=Helvetica;fontSize=11;fontColor=default;labelBackgroundColor=default;endArrow=none;endFill=0;" parent="1" source="zhEialryifkVsMo9ecng-1" target="R4Y-qMwQEU5ShF-LeEok-8" edge="1">
          <mxGeometry relative="1" as="geometry" />
        </mxCell>
        <mxCell id="R4Y-qMwQEU5ShF-LeEok-14" style="edgeStyle=none;rounded=0;orthogonalLoop=1;jettySize=auto;html=1;entryX=0.5;entryY=0;entryDx=0;entryDy=0;strokeColor=default;align=center;verticalAlign=middle;fontFamily=Helvetica;fontSize=11;fontColor=default;labelBackgroundColor=default;endArrow=none;endFill=0;" parent="1" source="zhEialryifkVsMo9ecng-1" target="zhEialryifkVsMo9ecng-5" edge="1">
          <mxGeometry relative="1" as="geometry" />
        </mxCell>
        <mxCell id="R4Y-qMwQEU5ShF-LeEok-15" style="edgeStyle=none;rounded=0;orthogonalLoop=1;jettySize=auto;html=1;entryX=0;entryY=0.5;entryDx=0;entryDy=0;strokeColor=default;align=center;verticalAlign=middle;fontFamily=Helvetica;fontSize=11;fontColor=default;labelBackgroundColor=default;endArrow=none;endFill=0;" parent="1" source="zhEialryifkVsMo9ecng-1" target="R4Y-qMwQEU5ShF-LeEok-3" edge="1">
          <mxGeometry relative="1" as="geometry" />
        </mxCell>
        <mxCell id="R4Y-qMwQEU5ShF-LeEok-17" style="edgeStyle=none;rounded=0;orthogonalLoop=1;jettySize=auto;html=1;entryX=0.5;entryY=1;entryDx=0;entryDy=0;strokeColor=default;align=center;verticalAlign=middle;fontFamily=Helvetica;fontSize=11;fontColor=default;labelBackgroundColor=default;endArrow=none;endFill=0;" parent="1" source="zhEialryifkVsMo9ecng-1" target="R4Y-qMwQEU5ShF-LeEok-1" edge="1">
          <mxGeometry relative="1" as="geometry" />
        </mxCell>
        <mxCell id="zhEialryifkVsMo9ecng-1" value="Administrator" style="shape=umlActor;verticalLabelPosition=bottom;verticalAlign=top;html=1;outlineConnect=0;fillColor=none;" parent="1" vertex="1">
          <mxGeometry x="399" y="380" width="30" height="60" as="geometry" />
        </mxCell>
        <mxCell id="zhEialryifkVsMo9ecng-2" value="Dodaj budynek" style="ellipse;whiteSpace=wrap;html=1;fillColor=none;" parent="1" vertex="1">
          <mxGeometry x="84" y="160" width="135" height="90" as="geometry" />
        </mxCell>
        <mxCell id="zhEialryifkVsMo9ecng-3" value="Zamelduj osobę" style="ellipse;whiteSpace=wrap;html=1;fillColor=none;" parent="1" vertex="1">
          <mxGeometry x="600" y="150" width="135" height="90" as="geometry" />
        </mxCell>
        <mxCell id="zhEialryifkVsMo9ecng-4" value="Dodaj zgłoszenie" style="ellipse;whiteSpace=wrap;html=1;fillColor=none;" parent="1" vertex="1">
          <mxGeometry x="670" y="470" width="135" height="90" as="geometry" />
        </mxCell>
        <mxCell id="zhEialryifkVsMo9ecng-5" value="Przypisz firmę podwykonawczą do zadania w zgłoszeniu" style="ellipse;whiteSpace=wrap;html=1;fillColor=none;" parent="1" vertex="1">
          <mxGeometry x="370" y="700" width="135" height="90" as="geometry" />
        </mxCell>
        <mxCell id="zhEialryifkVsMo9ecng-7" value="Wygeneruj raport" style="ellipse;whiteSpace=wrap;html=1;fillColor=none;" parent="1" vertex="1">
          <mxGeometry x="20" y="330" width="135" height="90" as="geometry" />
        </mxCell>
        <mxCell id="zhEialryifkVsMo9ecng-8" value="Dodaj wpis do cennika" style="ellipse;whiteSpace=wrap;html=1;fillColor=none;" parent="1" vertex="1">
          <mxGeometry x="440" y="50" width="135" height="90" as="geometry" />
        </mxCell>
        <mxCell id="zhEialryifkVsMo9ecng-9" value="Zapisz płatność związaną z umową lub zadaniem w zgłoszeniu" style="ellipse;whiteSpace=wrap;html=1;fillColor=none;" parent="1" vertex="1">
          <mxGeometry x="40" y="500" width="135" height="90" as="geometry" />
        </mxCell>
        <mxCell id="zhEialryifkVsMo9ecng-10" value="Zmień status zadania w zgłoszeniu" style="ellipse;whiteSpace=wrap;html=1;fillColor=none;" parent="1" vertex="1">
          <mxGeometry x="155" y="650" width="135" height="90" as="geometry" />
        </mxCell>
        <mxCell id="R4Y-qMwQEU5ShF-LeEok-1" value="Dodaj mieszkanie" style="ellipse;whiteSpace=wrap;html=1;fillColor=none;" parent="1" vertex="1">
          <mxGeometry x="230" y="50" width="135" height="90" as="geometry" />
        </mxCell>
        <mxCell id="R4Y-qMwQEU5ShF-LeEok-3" value="Przypisz osobę i wpis z cennika do umowy" style="ellipse;whiteSpace=wrap;html=1;fillColor=none;" parent="1" vertex="1">
          <mxGeometry x="670" y="310" width="135" height="90" as="geometry" />
        </mxCell>
        <mxCell id="R4Y-qMwQEU5ShF-LeEok-8" value="Dodaj zadania do zgłoszenia" style="ellipse;whiteSpace=wrap;html=1;fillColor=none;" parent="1" vertex="1">
          <mxGeometry x="575" y="620" width="135" height="90" as="geometry" />
        </mxCell>
        <mxCell id="R4Y-qMwQEU5ShF-LeEok-13" style="edgeStyle=none;rounded=0;orthogonalLoop=1;jettySize=auto;html=1;entryX=0.667;entryY=0.011;entryDx=0;entryDy=0;entryPerimeter=0;strokeColor=default;align=center;verticalAlign=middle;fontFamily=Helvetica;fontSize=11;fontColor=default;labelBackgroundColor=default;endArrow=none;endFill=0;" parent="1" source="zhEialryifkVsMo9ecng-1" target="zhEialryifkVsMo9ecng-10" edge="1">
          <mxGeometry relative="1" as="geometry" />
        </mxCell>
      </root>
    </mxGraphModel>
  </diagram>
</mxfile>
